Coordinates
version=1
nRows=20
nColumns=34
inDegrees=yes

Units are S.I. units (second, meters, Newtons, ...)
If the header above contains a line with 'inDegrees', this indicates whether rotational values are in degrees (yes) or radians (no).

endheader
time	pelvis_tilt	pelvis_list	pelvis_rotation	pelvis_tx	pelvis_ty	pelvis_tz	hip_flexion_r	hip_adduction_r	hip_rotation_r	knee_angle_r	ankle_angle_r	subtalar_angle_r	mtp_angle_r	hip_flexion_l	hip_adduction_l	hip_rotation_l	knee_angle_l	ankle_angle_l	subtalar_angle_l	mtp_angle_l	lumbar_extension	lumbar_bending	lumbar_rotation	arm_flex_r	arm_add_r	arm_rot_r	elbow_flex_r	pro_sup_r	arm_flex_l	arm_add_l	arm_rot_l	elbow_flex_l	pro_sup_l
      2.98333330	    -12.92127242	      3.61041455	     -4.51247772	     -0.01718021	      1.13192105	     -0.06289781	     12.26756966	     -2.23769573	     -3.81103603	      9.16380663	     10.45934004	     -8.25941489	      0.00000000	     14.18565755	     -1.94082377	    -11.42757184	     16.97652355	      6.80238717	    -14.15267542	      0.00000000	     -1.65512751	     -0.65807882	     -1.32640071	    -17.79203526	     -9.26443445	     14.21098245	     35.17637478	     74.10668092	    -29.60719571	    -15.63360901	     20.58721241	     18.66827450	     82.19571703
      3.00000000	    -13.13030433	      3.64774761	     -4.55225602	     -0.01928655	      1.12750331	     -0.06334603	     13.46343200	     -2.18848569	     -2.76251344	     10.88807796	     10.92548605	    -10.40170745	      0.00000000	     16.22230519	     -2.05908227	     -9.85669232	     20.40178459	      6.65913362	    -17.27046948	      0.00000000	     -2.84999660	     -0.59266419	     -1.09958916	    -18.47205561	     -9.67877900	     14.75881437	     35.88447728	     74.94615605	    -27.85597215	    -16.53665359	     28.52616516	     18.41143031	     81.11953230
      3.01666670	    -13.84378032	      3.58367948	     -4.56040308	     -0.01773109	      1.12731931	     -0.06463491	     15.52613368	     -2.07428318	     -2.07437078	     13.27360945	     11.85651746	    -11.64127336	      0.00000000	     19.12418152	     -2.43060557	     -8.72792013	     24.47139586	      7.59710910	    -18.42499941	      0.00000000	     -3.30098368	     -0.38089874	     -1.27811489	    -18.78487795	     -9.86061548	     14.50056554	     35.51367373	     75.09237595	    -26.55746478	    -16.27386194	     29.40334558	     18.55674459	     80.64250072
      3.03333330	    -14.23432571	      3.64585001	     -4.65162573	     -0.01561631	      1.12505395	     -0.06528534	     17.51103340	     -1.97593327	     -0.45040323	     15.88644937	     12.24764144	    -14.85481137	      0.00000000	     21.70605843	     -2.51777555	     -7.41527758	     28.48374687	      7.58168570	    -20.90223902	      0.00000000	     -4.13011167	     -0.39241538	     -1.28501954	    -18.97146014	     -9.92568745	     13.86123787	     34.51943123	     75.63422120	    -24.42998521	    -15.88364600	     32.27305524	     18.00051539	     79.76190955
      3.05000000	    -14.54589528	      3.54942951	     -4.45575283	     -0.00953917	      1.11933080	     -0.06687442	     19.09992434	     -1.86487545	      0.54133581	     18.48814846	     12.81334526	    -17.19133841	      0.00000000	     24.22668625	     -2.68116296	     -6.13196522	     32.56386039	      8.61679897	    -22.09248661	      0.00000000	     -4.96678612	     -0.15166296	     -0.74700615	    -18.28167697	     -9.78375132	     13.83634156	     31.26929902	     76.07426288	    -21.61936949	    -15.40183552	     34.20901891	     17.30899664	     79.07798529
      3.06666670	    -14.69731582	      3.38473567	     -4.22901007	     -0.00704271	      1.11681639	     -0.06970496	     20.59281508	     -1.68094439	      1.58174156	     21.43512417	     13.24803388	    -19.79058341	      0.00000000	     26.51871878	     -2.76509014	     -4.75800904	     36.65347440	      9.59224183	    -23.27697721	      0.00000000	     -6.12826404	      0.01372335	      0.12766959	    -16.11168249	     -9.98113089	     13.96353208	     30.42360187	     76.56016603	    -18.04675862	    -14.49697045	     34.85422523	     16.34351177	     78.54895837
      3.08333330	    -14.60354161	      3.28648098	     -3.99881080	     -0.00365885	      1.11325883	     -0.07080554	     21.87372777	     -1.47843339	      3.02701472	     24.45100113	     13.67891768	    -22.72834472	      0.00000000	     28.36859967	     -2.72124560	     -3.57337953	     40.54805141	     10.23918199	    -24.27404252	      0.00000000	     -7.45874611	     -0.01852133	      0.88233368	    -13.62746162	    -10.06640989	     13.65482866	     29.46112362	     77.12891140	    -14.17260861	    -13.40781035	     35.04623095	     14.95922787	     77.94104641
      3.10000000	    -14.31307586	      3.22282769	     -3.85866814	     -0.00169381	      1.10988840	     -0.07025757	     22.93085737	     -1.26871057	      4.29876840	     27.71085013	     13.46598361	    -25.87415793	      0.00000000	     29.90647353	     -2.62586529	     -2.53457868	     44.40669666	     10.40049673	    -25.04494003	      0.00000000	     -9.05281482	     -0.26723793	      1.42084152	     -9.65747379	    -10.45350774	     12.62681806	     31.95781094	     78.13805228	    -10.02823978	    -12.09654362	     34.08282558	     13.70049363	     77.12576950
      3.11666670	    -13.55166668	      3.14469208	     -3.62906302	      0.01419631	      1.10048091	     -0.06963820	     23.11350389	     -1.03830358	      5.23790629	     30.95085132	     13.79587373	    -28.64553048	      0.00000000	     30.16703324	     -2.50447951	     -1.54203200	     47.60125294	     11.46148301	    -24.90873166	      0.00000000	    -10.97501368	     -0.44569111	      3.19995296	     -5.84639038	     -9.89526472	     12.20735972	     27.47206288	     79.25219601	     -5.68560213	    -10.74327636	     32.26442237	     12.51679345	     76.27921613
      3.13333330	    -12.76496348	      3.09596333	     -3.46497873	      0.01809154	      1.09961548	     -0.06873003	     22.89524774	     -0.77787897	      5.95237198	     34.04563832	     13.20928498	    -31.58200391	      0.00000000	     29.90987572	     -2.32611330	     -0.60031271	     49.83895840	     11.73158128	    -25.07750189	      0.00000000	    -12.76882718	     -0.56662990	      3.55681219	     -3.84849433	     -8.92763783	     12.07360459	     21.42722407	     80.30888534	     -1.91138347	     -9.13974374	     30.59475646	     12.02134038	     75.78540667
      3.15000000	    -11.30520936	      3.06147824	     -3.38573545	      0.03335594	      1.09629686	     -0.06903012	     21.38023927	     -0.62992779	      6.33090127	     36.39847522	     12.68926037	    -34.23307128	      0.00000000	     28.10053551	     -2.07514194	      0.22230570	     51.03977402	     12.87229430	    -24.62748633	      0.00000000	    -14.88773493	     -0.44350796	      3.08425714	     -2.12800276	     -8.17984386	     11.87618277	     16.49037095	     81.32887250	      1.28705979	     -7.49843473	     29.35786564	     11.77075564	     75.55153093
      3.16666670	     -9.79733579	      3.12864921	     -3.22779157	      0.05144823	      1.09138569	     -0.06942002	     19.14300718	     -0.74186887	      6.25547478	     38.10716812	     13.24995355	    -35.00000000	      0.00000000	     25.49256756	     -1.74704084	      0.76679689	     51.42983146	     13.69829362	    -24.49561221	      0.00000000	    -16.65638120	     -0.22545429	      2.59463361	     -0.61965692	     -7.74358561	     11.59438037	     13.33581456	     82.04296148	      4.47393527	     -6.27072449	     28.69079812	     12.13858447	     75.47050192
      3.18333330	     -8.15152678	      3.38582512	     -3.07616630	      0.07129744	      1.09473467	     -0.06921837	     15.51254225	     -1.23728547	      6.10849362	     37.90540562	     13.80186409	    -35.00000000	      0.00000000	     21.70267701	     -1.13133072	      1.13004495	     50.35493661	     14.16882029	    -24.13653600	      0.00000000	    -17.88509041	     -0.34490345	      1.61417286	      1.46206558	     -7.34470302	     11.27647103	     11.51783786	     82.68848728	      7.06454776	     -5.40329556	     28.28180174	     12.48768174	     75.44490548
      3.20000000	     -7.03980108	      3.56840289	     -3.12951823	      0.08092423	      1.09173552	     -0.06710718	     12.56644790	     -1.42960612	      6.10394209	     37.33536771	     14.74348854	    -35.00000000	      0.00000000	     18.19094954	     -0.74024983	      1.10995025	     48.89885551	     15.11876891	    -23.70081116	      0.00000000	    -18.12226023	     -0.51184420	      0.73027937	      4.18257740	     -6.77642210	     10.29819830	      9.74580743	     89.10561721	      9.00134092	     -5.21088637	     24.80618142	     14.49760434	     75.42949056
      3.21666670	     -6.42273704	      3.66055366	     -3.02482900	      0.08717691	      1.09323181	     -0.06857021	     10.09728572	     -1.67587797	      5.71912260	     36.21896960	     15.05238553	    -35.00000000	      0.00000000	     15.74695938	     -0.35988753	      1.29760521	     47.23564161	     14.91238004	    -23.66023128	      0.00000000	    -17.92979561	     -0.59390357	      0.66523558	      6.25962909	     -6.61527312	     10.09585801	     10.86785169	     89.34514774	     11.81461033	     -5.04927071	     24.89422383	     16.31809309	     75.63035849
      3.23333330	     -6.92680497	      3.65338023	     -2.99198875	      0.08304794	      1.09134636	     -0.06910307	      9.78750991	     -1.71538332	      5.48900865	     35.33995355	     15.74923472	    -35.00000000	      0.00000000	     15.46435466	     -0.15900126	      1.07262042	     46.72636951	     14.91506356	    -23.98341039	      0.00000000	    -16.82267248	     -0.66136608	      1.29538597	      8.91729721	     -6.54980567	     10.26899358	     12.83703743	     89.69016026	     15.11448584	     -5.30413147	     24.93065386	     19.83575553	     75.87472437
      3.25000000	     -7.77334209	      3.67400554	     -2.63921255	      0.09422532	      1.09542914	     -0.06963408	      9.21014190	     -1.88272601	      5.26567609	     33.47539425	     14.76214941	    -35.00000000	      0.00000000	     15.07404979	      0.20941021	      1.40494443	     44.84065427	     14.05577939	    -23.89520232	      0.00000000	    -14.90096047	     -0.65323873	      1.59126308	     11.21490221	     -6.64192994	     10.83200909	     16.60119265	     90.20555547	     18.02956359	     -5.89090001	     25.12563693	     25.32091209	     76.37423933
      3.26666670	     -9.38511561	      3.50794049	     -1.82075166	      0.10627126	      1.08907001	     -0.07053818	      9.55130472	     -1.87805375	      4.65606094	     31.88619749	     13.93237880	    -35.00000000	      0.00000000	     14.63149723	      0.22111256	      1.74703572	     41.51359545	     14.84160983	    -22.59428505	      0.00000000	    -11.46160949	     -0.39741319	      1.94633301	     12.35012368	     -7.06363933	     11.82184441	     21.77552641	     90.88441898	     20.31866252	     -6.76437264	     25.82666550	     31.99739735	     77.22141240
      3.28333330	    -10.54771174	      3.36214498	     -0.97495818	      0.13613731	      1.08964112	     -0.07532753	      7.98453729	     -2.22330925	      3.77380671	     29.02603102	     12.42796721	    -34.24231405	      0.00000000	     12.38788963	      0.09883762	      1.78419478	     36.64855524	     15.01036781	    -20.57337982	      0.00000000	     -7.27939686	     -0.16277748	      2.40345533	     11.60780765	     -7.81098733	     12.99785605	     27.81364712	     91.79933252	     20.68157652	     -7.63066622	     27.25552014	     39.83571137	     78.56377652
      3.30000000	    -12.05340577	      3.23785848	     -0.53253738	      0.15877747	      1.10438802	     -0.07832002	      5.92252447	     -2.95617124	      2.14899974	     25.09196691	     11.92777024	    -28.77220364	      0.00000000	      9.84618560	     -0.04251020	      1.29208933	     30.71561325	     13.61146541	    -18.29374452	      0.00000000	     -2.27551544	      0.04097439	      2.94183958	      9.91441407	     -8.45275580	     13.88199058	     32.94844761	     92.87032947	     20.10749765	     -8.20855640	     28.52732012	     46.91805897	     80.14932236
